<svg version="1.1" xmlns="http://www.w3.org/2000/svg" xmlns:xlink="http://www.w3.org/1999/xlink" viewBox="0 0 172 172"><g fill="none" fill-rule="nonzero" stroke="none" stroke-width="1" stroke-linecap="butt" stroke-linejoin="miter" stroke-miterlimit="10" stroke-dasharray="" stroke-dashoffset="0" font-family="none" font-weight="none" font-size="none" text-anchor="none" style="mix-blend-mode: normal"><path d="M0,172v-172h172v172z" fill="none"></path><g><path d="M163.9375,5.375h-94.0625v43h-17.46875l-34.9375,13.4375v108.84375h61.8125v-4.03125h84.65625z" fill="#ffffff"></path><path d="M163.9375,170.65625c-2.28438,0 -4.03125,-1.74687 -4.03125,-4.03125v-157.21875h-86v157.21875c0,2.28438 -1.74688,4.03125 -4.03125,4.03125c-2.28437,0 -4.03125,-1.74687 -4.03125,-4.03125v-161.25c0,-2.28438 1.74688,-4.03125 4.03125,-4.03125h94.0625c2.28438,0 4.03125,1.74687 4.03125,4.03125v161.25c0,2.28438 -1.74687,4.03125 -4.03125,4.03125z" fill="#32a8a4"></path><path d="M120.9375,170.65625h-8.0625c-2.28437,0 -4.03125,-1.74687 -4.03125,-4.03125v-24.1875c0,-2.28438 1.74688,-4.03125 4.03125,-4.03125h8.0625c2.28437,0 4.03125,1.74687 4.03125,4.03125v24.1875c0,2.28438 -1.74688,4.03125 -4.03125,4.03125zM48.375,170.65625h-8.0625c-2.28437,0 -4.03125,-1.74687 -4.03125,-4.03125v-24.1875c0,-2.28438 1.74688,-4.03125 4.03125,-4.03125h8.0625c2.28438,0 4.03125,1.74687 4.03125,4.03125v24.1875c0,2.28438 -1.74687,4.03125 -4.03125,4.03125zM17.46875,170.65625c-2.28437,0 -4.03125,-1.74687 -4.03125,-4.03125v-104.8125c0,-1.6125 1.075,-3.225 2.55312,-3.7625l34.9375,-13.4375c2.01563,-0.80625 4.43437,0.26875 5.24062,2.28438c0.80625,2.01563 -0.26875,4.43437 -2.28438,5.24062l-32.38437,12.49688v101.99063c0,2.28438 -1.74687,4.03125 -4.03125,4.03125z" fill="#32a8a4"></path><path d="M139.75,65.84375c-0.26875,0 -0.5375,0 -0.80625,-0.13438c-0.26875,0 -0.5375,-0.13437 -0.80625,-0.26875c-0.26875,-0.13438 -0.40312,-0.26875 -0.67187,-0.40313c-0.26875,-0.13437 -0.40312,-0.26875 -0.67187,-0.5375c-0.80625,-0.80625 -1.20938,-1.74687 -1.20938,-2.82187c0,-0.26875 0,-0.5375 0.13438,-0.80625c0,-0.26875 0.13438,-0.5375 0.26875,-0.80625c0.13437,-0.26875 0.26875,-0.40312 0.40312,-0.67187c0.13438,-0.26875 0.26875,-0.40312 0.5375,-0.67187c0.26875,-0.26875 0.40313,-0.40312 0.67188,-0.5375c0.26875,-0.13437 0.40313,-0.26875 0.67188,-0.40312c0.26875,-0.13437 0.5375,-0.13437 0.80625,-0.26875c1.34375,-0.26875 2.6875,0.13438 3.62813,1.075c0.13437,0.13438 0.40312,0.40312 0.5375,0.67188c0.13438,0.26875 0.26875,0.40312 0.40312,0.67188c0.13438,0.26875 0.13438,0.5375 0.26875,0.80625c0,0.26875 0.13438,0.5375 0.13438,0.80625c0,1.075 -0.40313,2.15 -1.20938,2.82187c-0.13437,0.13438 -0.40312,0.40313 -0.5375,0.5375c-0.26875,0.13437 -0.40312,0.26875 -0.67187,0.40312c-0.26875,0.13438 -0.5375,0.13438 -0.80625,0.26875c-0.5375,0.26875 -0.80625,0.26875 -1.075,0.26875zM112.875,61.8125c0,-2.28438 1.74688,-4.03125 4.03125,-4.03125v0c2.28437,0 4.03125,1.74687 4.03125,4.03125v0c0,2.28437 -1.74688,4.03125 -4.03125,4.03125v0c-2.28437,0 -4.03125,-1.74688 -4.03125,-4.03125zM94.0625,65.84375c-1.075,0 -2.15,-0.40313 -2.82187,-1.20937c-0.80625,-0.67188 -1.20938,-1.74688 -1.20938,-2.82188c0,-0.26875 0,-0.5375 0.13437,-0.80625c0,-0.26875 0.13437,-0.5375 0.26875,-0.80625c0.13437,-0.26875 0.26875,-0.40312 0.40312,-0.67187c0.13437,-0.26875 0.26875,-0.40312 0.5375,-0.67187c0.94062,-0.94063 2.28437,-1.34375 3.62812,-1.075c0.26875,0 0.5375,0.13437 0.80625,0.26875c0.26875,0.13437 0.5375,0.26875 0.67188,0.40312c0.26875,0.13437 0.40312,0.26875 0.5375,0.5375c0.13438,0.13437 0.40313,0.40312 0.5375,0.67188c0.13437,0.26875 0.26875,0.40312 0.40313,0.67188c0.13437,0.26875 0.13437,0.5375 0.26875,0.80625c0,0.26875 0.13437,0.5375 0.13437,0.80625c0,1.075 -0.40312,2.15 -1.20937,2.82187c-0.13438,0.13438 -0.40313,0.40313 -0.5375,0.5375c-0.26875,0.13437 -0.40313,0.26875 -0.67187,0.40312c-0.26875,0.13438 -0.5375,0.13438 -0.80625,0.26875c-0.5375,-0.13438 -0.80625,-0.13438 -1.075,-0.13438zM139.75,45.6875c-0.26875,0 -0.5375,0 -0.80625,-0.13437c-0.26875,0 -0.5375,-0.13438 -0.80625,-0.26875c-0.26875,-0.13438 -0.40312,-0.26875 -0.67187,-0.40312c-0.26875,-0.13438 -0.40312,-0.26875 -0.67187,-0.5375c-0.13438,-0.13437 -0.40312,-0.40312 -0.5375,-0.67187c-0.13437,-0.26875 -0.26875,-0.40312 -0.40312,-0.67187c-0.13437,-0.26875 -0.13437,-0.5375 -0.26875,-0.80625c0,-0.26875 -0.13437,-0.5375 -0.13437,-0.80625c0,-0.26875 0,-0.5375 0.13437,-0.80625c0,-0.26875 0.13438,-0.5375 0.26875,-0.80625c0.13438,-0.26875 0.26875,-0.40313 0.40312,-0.67187c0.13438,-0.26875 0.26875,-0.40313 0.5375,-0.67187c0.26875,-0.26875 0.40312,-0.40313 0.67188,-0.5375c0.26875,-0.13438 0.40312,-0.26875 0.67188,-0.40313c0.26875,-0.13438 0.5375,-0.13438 0.80625,-0.26875c1.34375,-0.26875 2.6875,0.13437 3.62813,1.075c0.80625,0.80625 1.20938,1.74688 1.20938,2.82188c0,0.26875 0,0.5375 -0.13438,0.80625c0,0.26875 -0.13437,0.5375 -0.26875,0.80625c-0.13437,0.26875 -0.26875,0.5375 -0.40312,0.67187c-0.13437,0.26875 -0.26875,0.40312 -0.5375,0.67188c-0.13438,0.13438 -0.40313,0.40312 -0.5375,0.5375c-0.26875,0.13437 -0.40312,0.26875 -0.67187,0.40312c-0.26875,0.13437 -0.5375,0.13437 -0.80625,0.26875c-0.13438,0.40313 -0.40313,0.40313 -0.67188,0.40313zM112.875,41.65625c0,-2.28437 1.74688,-4.03125 4.03125,-4.03125v0c2.28437,0 4.03125,1.74688 4.03125,4.03125v0c0,2.28438 -1.74688,4.03125 -4.03125,4.03125v0c-2.28437,0 -4.03125,-1.74687 -4.03125,-4.03125zM94.0625,45.6875c-1.075,0 -2.15,-0.40312 -2.82187,-1.20938c-0.80625,-0.67187 -1.20938,-1.74687 -1.20938,-2.82187c0,-1.075 0.40313,-2.15 1.20938,-2.82187c0.94062,-0.94063 2.28437,-1.34375 3.62812,-1.075c0.26875,0 0.5375,0.13437 0.80625,0.26875c0.26875,0.13438 0.5375,0.26875 0.67188,0.40313c0.26875,0.13437 0.40313,0.26875 0.5375,0.5375c0.80625,0.80625 1.20938,1.74688 1.20938,2.82188c0,1.075 -0.40312,2.15 -1.20938,2.82187c-0.13437,0.13437 -0.40312,0.40312 -0.5375,0.5375c-0.26875,0.13438 -0.40312,0.26875 -0.67187,0.40312c-0.26875,0.13438 -0.5375,0.13438 -0.80625,0.26875c-0.26875,-0.13437 -0.5375,-0.13437 -0.80625,-0.13437zM139.75,86c-0.26875,0 -0.5375,0 -0.80625,-0.13438c-0.26875,0 -0.5375,-0.13437 -0.80625,-0.26875c-0.26875,-0.13438 -0.40312,-0.26875 -0.67187,-0.40313c-0.26875,-0.13437 -0.40312,-0.26875 -0.67187,-0.5375c-0.13438,-0.13438 -0.40312,-0.40313 -0.5375,-0.5375c-0.13437,-0.26875 -0.26875,-0.40313 -0.40312,-0.67187c-0.13437,-0.26875 -0.13437,-0.5375 -0.26875,-0.80625c0,-0.26875 -0.13437,-0.5375 -0.13437,-0.80625c0,-0.26875 0,-0.5375 0.13437,-0.80625c0,-0.26875 0.13438,-0.5375 0.26875,-0.80625c0.13438,-0.26875 0.26875,-0.40313 0.40312,-0.67187c0.13438,-0.26875 0.26875,-0.40313 0.5375,-0.67187c0.26875,-0.26875 0.40312,-0.40313 0.67188,-0.5375c0.26875,-0.13438 0.40312,-0.26875 0.67188,-0.40313c0.26875,-0.13438 0.5375,-0.13438 0.80625,-0.26875c0.5375,-0.13438 1.075,-0.13438 1.6125,0c0.26875,0 0.5375,0.13437 0.80625,0.26875c0.26875,0.13438 0.5375,0.26875 0.67188,0.40313c0.26875,0.13437 0.40312,0.26875 0.5375,0.5375c0.13438,0.13438 0.40312,0.40312 0.5375,0.67188c0.13437,0.26875 0.26875,0.40312 0.40312,0.67188c0.13437,0.26875 0.13437,0.5375 0.26875,0.80625c0,0.26875 0.13437,0.5375 0.13437,0.80625c0,1.075 -0.40312,2.15 -1.20937,2.82188c-0.80625,0.94062 -1.88125,1.34375 -2.95625,1.34375zM112.875,81.96875c0,-2.28437 1.74688,-4.03125 4.03125,-4.03125v0c2.28437,0 4.03125,1.74688 4.03125,4.03125v0c0,2.28437 -1.74688,4.03125 -4.03125,4.03125v0c-2.28437,0 -4.03125,-1.74688 -4.03125,-4.03125zM94.0625,86c-1.075,0 -2.15,-0.40313 -2.82187,-1.20937c-0.13437,-0.13438 -0.40313,-0.40313 -0.5375,-0.5375c-0.13437,-0.26875 -0.26875,-0.40312 -0.40313,-0.67187c-0.13437,-0.26875 -0.13437,-0.5375 -0.26875,-0.80625c0,-0.26875 -0.13437,-0.5375 -0.13437,-0.80625c0,-1.075 0.40312,-2.15 1.20938,-2.82188c0.94062,-0.94062 2.28437,-1.34375 3.62812,-1.075c0.26875,0 0.5375,0.13437 0.80625,0.26875c0.26875,0.13438 0.5375,0.26875 0.67188,0.40313c0.26875,0.13437 0.40313,0.26875 0.5375,0.5375c0.80625,0.80625 1.20938,1.74688 1.20938,2.82188c0,0.26875 0,0.5375 -0.13437,0.80625c0,0.26875 -0.13437,0.5375 -0.26875,0.80625c-0.13437,0.26875 -0.26875,0.5375 -0.40313,0.67188c-0.13437,0.26875 -0.26875,0.40313 -0.5375,0.5375c-0.13437,0.13438 -0.40312,0.40313 -0.5375,0.5375c-0.26875,0.13437 -0.40312,0.26875 -0.67187,0.40312c-0.26875,0.13438 -0.5375,0.13438 -0.80625,0.26875c0,-0.13437 -0.26875,-0.13437 -0.5375,-0.13437z" fill="#ffba70"></path><g fill="#ffba70"><path d="M139.75,106.15625c-1.075,0 -2.15,-0.40313 -2.82188,-1.20938c-0.13437,-0.13437 -0.40312,-0.40312 -0.5375,-0.5375c-0.13438,-0.26875 -0.26875,-0.40312 -0.40312,-0.67187c-0.13438,-0.26875 -0.13438,-0.5375 -0.26875,-0.80625c0,-0.26875 -0.13438,-0.5375 -0.13438,-0.80625c0,-0.26875 0,-0.5375 0.13438,-0.80625c0,-0.26875 0.13438,-0.5375 0.26875,-0.80625c0.13437,-0.26875 0.26875,-0.40313 0.40312,-0.67187c0.13438,-0.26875 0.26875,-0.40313 0.5375,-0.67187c1.47813,-1.47812 4.16563,-1.47812 5.64375,0c0.13438,0.13437 0.40312,0.40312 0.5375,0.67188c0.13437,0.26875 0.26875,0.40312 0.40312,0.67188c0.13437,0.26875 0.13437,0.5375 0.26875,0.80625c0,0.26875 0.13437,0.5375 0.13437,0.80625c0,0.26875 0,0.5375 -0.13437,0.80625c0,0.26875 -0.13438,0.5375 -0.26875,0.80625c-0.13438,0.26875 -0.26875,0.5375 -0.40312,0.67188c-0.13438,0.26875 -0.26875,0.40313 -0.5375,0.5375c-0.67187,0.80625 -1.74688,1.20938 -2.82188,1.20938zM112.875,102.125c0,-2.28437 1.74688,-4.03125 4.03125,-4.03125v0c2.28437,0 4.03125,1.74688 4.03125,4.03125v0c0,2.28437 -1.74688,4.03125 -4.03125,4.03125v0c-2.28437,0 -4.03125,-1.74688 -4.03125,-4.03125zM94.0625,106.15625c-1.075,0 -2.15,-0.40313 -2.82187,-1.20938c-0.80625,-0.67187 -1.20938,-1.74687 -1.20938,-2.82187c0,-1.075 0.40313,-2.15 1.20938,-2.82187c0.94062,-0.94063 2.28437,-1.34375 3.62812,-1.075c0.26875,0 0.5375,0.13437 0.80625,0.26875c0.26875,0.13437 0.5375,0.26875 0.67188,0.40312c0.26875,0.13437 0.40313,0.26875 0.5375,0.5375c0.80625,0.80625 1.20938,1.74688 1.20938,2.82187c0,1.075 -0.40312,2.15 -1.20938,2.82187c-0.13437,0.13438 -0.40312,0.40313 -0.5375,0.5375c-0.26875,0.13437 -0.40312,0.26875 -0.67187,0.40313c-0.26875,0.13437 -0.5375,0.13437 -0.80625,0.26875c-0.26875,-0.13438 -0.5375,-0.13438 -0.80625,-0.13438z"></path></g><g fill="#ffba70"><path d="M139.75,126.3125c-1.075,0 -2.15,-0.40313 -2.82188,-1.20938c-0.13437,-0.13437 -0.40312,-0.40312 -0.5375,-0.5375c-0.13438,-0.26875 -0.26875,-0.40312 -0.40312,-0.67187c-0.13438,-0.26875 -0.13438,-0.5375 -0.26875,-0.80625c0,-0.26875 -0.13438,-0.5375 -0.13438,-0.80625c0,-0.26875 0,-0.5375 0.13438,-0.80625c0,-0.26875 0.13438,-0.5375 0.26875,-0.80625c0.13437,-0.26875 0.26875,-0.40313 0.40312,-0.67187c0.13438,-0.26875 0.26875,-0.40313 0.5375,-0.67187c1.47813,-1.47812 4.16563,-1.47812 5.64375,0c0.80625,0.80625 1.20938,1.74687 1.20938,2.82187c0,0.26875 0,0.5375 -0.13438,0.80625c0,0.26875 -0.13437,0.5375 -0.26875,0.80625c-0.13437,0.26875 -0.26875,0.5375 -0.40312,0.67188c-0.13437,0.26875 -0.26875,0.40313 -0.5375,0.5375c-0.5375,0.94062 -1.6125,1.34375 -2.6875,1.34375zM112.875,122.28125c0,-2.28437 1.74688,-4.03125 4.03125,-4.03125v0c2.28437,0 4.03125,1.74688 4.03125,4.03125v0c0,2.28437 -1.74688,4.03125 -4.03125,4.03125v0c-2.28437,0 -4.03125,-1.74688 -4.03125,-4.03125zM94.0625,126.3125c-1.075,0 -2.15,-0.40313 -2.82187,-1.20938c-0.80625,-0.67187 -1.20938,-1.74687 -1.20938,-2.82187c0,-0.26875 0,-0.5375 0.13437,-0.80625c0,-0.26875 0.13437,-0.5375 0.26875,-0.80625c0.13437,-0.26875 0.26875,-0.40313 0.40312,-0.67187c0.13437,-0.26875 0.26875,-0.40313 0.5375,-0.67187c0.94062,-0.94063 2.28437,-1.34375 3.62812,-1.075c0.26875,0 0.5375,0.13437 0.80625,0.26875c0.26875,0.13437 0.5375,0.26875 0.67188,0.40312c0.26875,0.13437 0.40312,0.26875 0.5375,0.5375c0.13438,0.13437 0.40313,0.40313 0.5375,0.67188c0.13437,0.26875 0.26875,0.40313 0.40313,0.67188c0.13437,0.26875 0.13437,0.5375 0.26875,0.80625c0,0.26875 0.13437,0.5375 0.13437,0.80625c0,1.075 -0.40312,2.15 -1.20937,2.82187c-0.94063,0.67188 -2.01562,1.075 -3.09063,1.075z"></path></g><g fill="#ffba70"><path d="M139.75,146.46875c-1.075,0 -2.15,-0.40312 -2.82188,-1.20937c-0.13437,-0.13438 -0.40312,-0.40313 -0.5375,-0.5375c-0.13438,-0.26875 -0.26875,-0.40312 -0.40312,-0.67187c-0.13438,-0.26875 -0.13438,-0.5375 -0.26875,-0.80625c0,-0.26875 -0.13438,-0.5375 -0.13438,-0.80625c0,-0.26875 0,-0.5375 0.13438,-0.80625c0,-0.26875 0.13438,-0.5375 0.26875,-0.80625c0.13437,-0.26875 0.26875,-0.40312 0.40312,-0.67187c0.13438,-0.26875 0.26875,-0.40312 0.5375,-0.5375c0.26875,-0.13438 0.40313,-0.40312 0.67188,-0.5375c0.26875,-0.13438 0.40313,-0.26875 0.67188,-0.40312c0.26875,-0.13438 0.5375,-0.13438 0.80625,-0.26875c1.34375,-0.26875 2.6875,0.13438 3.62813,1.075c0.13437,0.13438 0.40312,0.40313 0.5375,0.5375c0.13438,0.26875 0.26875,0.40312 0.40312,0.67188c0.13438,0.26875 0.13438,0.5375 0.26875,0.80625c0,0.26875 0.13438,0.5375 0.13438,0.80625c0,0.26875 0,0.5375 -0.13438,0.80625c0,0.26875 -0.13437,0.5375 -0.26875,0.80625c-0.13437,0.26875 -0.26875,0.5375 -0.40312,0.67188c-0.13437,0.26875 -0.26875,0.40312 -0.5375,0.5375c-0.80625,0.94063 -1.88125,1.34375 -2.95625,1.34375zM94.0625,146.46875c-1.075,0 -2.15,-0.40312 -2.82187,-1.20937c-0.80625,-0.80625 -1.20938,-1.74688 -1.20938,-2.82188c0,-1.075 0.40313,-2.15 1.20938,-2.82188c0.94062,-0.94062 2.28437,-1.34375 3.62812,-1.075c0.26875,0 0.5375,0.13438 0.80625,0.26875c0.26875,0.13437 0.5375,0.26875 0.67188,0.40312c0.26875,0.13438 0.40313,0.26875 0.5375,0.5375c0.80625,0.80625 1.20938,1.74687 1.20938,2.82187c0,1.075 -0.40312,2.15 -1.20938,2.82188c-0.13437,0.13437 -0.40312,0.40312 -0.5375,0.5375c-0.26875,0.13438 -0.40312,0.26875 -0.67187,0.40312c-0.26875,0.13438 -0.5375,0.13438 -0.80625,0.26875c-0.26875,-0.13438 -0.5375,-0.13438 -0.80625,-0.13438z"></path></g><g fill="#ffba70"><path d="M44.34375,86c-1.075,0 -2.15,-0.40313 -2.82187,-1.20937c-0.80625,-0.67187 -1.20938,-1.74688 -1.20938,-2.82188c0,-0.26875 0,-0.5375 0.13437,-0.80625c0,-0.26875 0.13438,-0.5375 0.26875,-0.80625c0.13437,-0.26875 0.26875,-0.40313 0.40312,-0.67187c0.13438,-0.26875 0.26875,-0.40313 0.5375,-0.67187c0.94062,-0.94063 2.28438,-1.34375 3.62813,-1.075c0.26875,0 0.5375,0.13438 0.80625,0.26875c0.26875,0.13438 0.5375,0.26875 0.67188,0.40313c0.26875,0.13438 0.40312,0.26875 0.67188,0.5375c0.13438,0.13438 0.40312,0.40313 0.5375,0.67188c0.13437,0.26875 0.26875,0.40313 0.40312,0.67188c0.13437,0.26875 0.13437,0.5375 0.26875,0.80625c0,0.26875 0.13437,0.5375 0.13437,0.80625c0,1.075 -0.40312,2.15 -1.20937,2.82187c-0.13438,0.13438 -0.40312,0.40313 -0.67187,0.5375c-0.26875,0.13437 -0.40312,0.26875 -0.67187,0.40312c-0.26875,0.13438 -0.5375,0.13438 -0.80625,0.26875c-0.5375,-0.13437 -0.80625,-0.13437 -1.075,-0.13437z"></path></g><g fill="#ffba70"><path d="M44.34375,106.15625c-1.075,0 -2.15,-0.40313 -2.82187,-1.20938c-0.80625,-0.67187 -1.20938,-1.74687 -1.20938,-2.82187c0,-0.26875 0,-0.5375 0.13437,-0.80625c0,-0.26875 0.13438,-0.5375 0.26875,-0.80625c0.13437,-0.26875 0.26875,-0.40313 0.40312,-0.67187c0.13438,-0.26875 0.26875,-0.40313 0.5375,-0.67187c0.94062,-0.94063 2.28438,-1.34375 3.62813,-1.075c0.26875,0 0.5375,0.13437 0.80625,0.26875c0.26875,0.13437 0.5375,0.26875 0.67188,0.40312c0.26875,0.13437 0.40312,0.26875 0.67188,0.5375c0.13438,0.13437 0.40312,0.40313 0.5375,0.67188c0.13437,0.26875 0.26875,0.40313 0.40312,0.67188c0.13437,0.26875 0.13437,0.5375 0.26875,0.80625c0,0.26875 0.13437,0.5375 0.13437,0.80625c0,0.26875 0,0.5375 -0.13437,0.80625c0,0.26875 -0.13438,0.5375 -0.26875,0.80625c-0.13437,0.26875 -0.26875,0.5375 -0.40312,0.67188c-0.13438,0.26875 -0.26875,0.40312 -0.5375,0.5375c-0.13437,0.13438 -0.40312,0.40313 -0.67187,0.5375c-0.26875,0.13437 -0.40312,0.26875 -0.67187,0.40313c-0.26875,0.13437 -0.5375,0.13437 -0.80625,0.26875c-0.40313,-0.13438 -0.67187,-0.13438 -0.94063,-0.13438z"></path></g><g fill="#ffba70"><path d="M44.34375,126.3125c-1.075,0 -2.15,-0.40313 -2.82187,-1.20938c-0.13438,-0.13437 -0.40313,-0.40312 -0.5375,-0.5375c-0.13437,-0.26875 -0.26875,-0.40312 -0.40313,-0.67187c-0.13437,-0.26875 -0.13437,-0.5375 -0.26875,-0.80625c0,-0.26875 -0.13437,-0.5375 -0.13437,-0.80625c0,-0.26875 0,-0.5375 0.13437,-0.80625c0,-0.26875 0.13437,-0.5375 0.26875,-0.80625c0.13438,-0.26875 0.26875,-0.40313 0.40313,-0.67187c0.13437,-0.26875 0.26875,-0.40313 0.5375,-0.67187c0.94062,-0.94063 2.28437,-1.34375 3.62812,-1.075c0.26875,0 0.5375,0.13437 0.80625,0.26875c0.26875,0.13437 0.5375,0.26875 0.67188,0.40312c0.26875,0.13437 0.40312,0.26875 0.67188,0.5375c0.13437,0.13437 0.40312,0.40313 0.5375,0.67188c0.13438,0.26875 0.26875,0.40313 0.40313,0.67188c0.13437,0.26875 0.13437,0.5375 0.26875,0.80625c0,0.26875 0.13438,0.5375 0.13438,0.80625c0,0.26875 0,0.5375 -0.13438,0.80625c0,0.26875 -0.13437,0.5375 -0.26875,0.80625c-0.13438,0.26875 -0.26875,0.5375 -0.40313,0.67188c-0.13437,0.26875 -0.26875,0.40312 -0.5375,0.5375c-0.13438,0.13438 -0.40312,0.40313 -0.67187,0.5375c-0.26875,0.13437 -0.40312,0.26875 -0.67187,0.40313c-0.26875,0.13437 -0.5375,0.13437 -0.80625,0.26875c-0.26875,-0.13438 -0.5375,-0.13438 -0.80625,-0.13438z"></path></g></g></g></svg>